<svg width="490" height="360" viewBox="0 0 490 360" fill="none" xmlns="http://www.w3.org/2000/svg">
  <path fill-rule="evenodd" clip-rule="evenodd" d="M230.142 0.554276H190.204H148.393C130.608 0.554276 113.837 9.2128 103.462 23.6437L62.8999 80.4311H10.4808V120.37H34.1942L31.074 124.738C17.5792 143.615 10.4808 166.392 10.4808 189.638V300.092V301.964V340.031C10.4808 351.029 19.4513 360 30.45 360H90.3576L100.342 330.046C106.016 330.725 111.835 331.354 117.917 332.012C119.528 332.186 121.158 332.363 122.808 332.542L124.68 334.414L125.928 333.166C162.356 336.989 204.4 340.031 250.111 340.031C295.822 340.031 337.866 336.989 374.295 333.166L375.543 334.414L377.415 332.542C379.065 332.363 380.694 332.186 382.305 332.012C388.387 331.354 394.207 330.725 399.88 330.046L409.865 360H469.772C480.771 360 489.742 351.029 489.742 340.031V302.589C489.82 301.73 489.82 300.95 489.742 300.092V189.638C489.742 166.392 482.643 143.615 469.148 124.738L466.028 120.37H489.742V80.4311H437.323L396.76 23.6437C386.385 9.2128 369.614 0.554276 351.829 0.554276H310.019H270.08H230.142ZM351.829 40.4927H148.393C143.479 40.4927 138.798 42.6768 135.912 46.7331L111.575 80.4311L83.4932 120.37L69.1403 140.339C69.2675 140.339 69.4031 140.33 69.5415 140.322C69.8274 140.304 70.1256 140.286 70.3884 140.339C134.04 150.635 130.296 160.308 130.296 160.308C130.296 160.308 123.51 170.137 111.575 177.157C104.745 181.193 96.2165 180.673 89.8305 180.283L89.7335 180.277C83.3372 179.887 69.9203 178.795 52.9153 177.157C52.5909 177.116 52.414 176.97 52.2423 176.829C52.0837 176.698 51.9294 176.57 51.6672 176.533C50.8872 180.823 50.4192 185.269 50.4192 189.638V282.619C64.85 284.881 86.3793 287.69 110.951 290.732L155.882 245.801L162.122 240.185H338.1L344.341 245.801L389.272 290.732C413.843 287.69 435.372 284.881 449.803 282.619V189.638C449.803 185.269 449.335 180.823 448.555 176.533C448.293 176.57 448.139 176.698 447.98 176.829C447.808 176.97 447.632 177.116 447.307 177.157C430.302 178.795 416.885 179.887 410.489 180.277L410.392 180.283C404.006 180.673 395.477 181.193 388.648 177.157C376.713 170.137 369.926 160.308 369.926 160.308C369.926 160.308 366.182 150.635 429.834 140.339C430.097 140.286 430.395 140.304 430.681 140.322C430.819 140.33 430.955 140.339 431.082 140.339L416.729 120.37L388.648 80.4311L364.31 46.7331C361.424 42.6768 356.744 40.4927 351.829 40.4927ZM150.265 200.246V160.308H349.957V200.246H150.265ZM321.251 280.123H178.971L162.746 296.348C189.502 298.532 218.285 300.092 250.111 300.092C281.937 300.092 310.721 298.532 337.476 296.348L321.251 280.123Z" fill="url(#paint0_linear)"/>
  <path fill-rule="evenodd" clip-rule="evenodd" d="M220.142 0.554276H180.204H138.393C120.608 0.554276 103.837 9.2128 93.4623 23.6437L52.8999 80.4311H0.480752V120.37H24.1942L21.074 124.738C7.57919 143.615 0.480752 166.392 0.480752 189.638V300.092V301.964V340.031C0.480752 351.029 9.4513 360 20.45 360H80.3576L90.3422 330.046C96.0157 330.725 101.835 331.354 107.917 332.012C109.528 332.186 111.158 332.363 112.808 332.542L114.68 334.414L115.928 333.166C152.356 336.989 194.4 340.031 240.111 340.031C285.822 340.031 327.866 336.989 364.295 333.166L365.543 334.414L367.415 332.542C369.065 332.363 370.694 332.186 372.305 332.012C378.387 331.354 384.207 330.725 389.88 330.046L399.865 360H459.772C470.771 360 479.742 351.029 479.742 340.031V302.589C479.82 301.73 479.82 300.95 479.742 300.092V189.638C479.742 166.392 472.643 143.615 459.148 124.738L456.028 120.37H479.742V80.4311H427.323L386.76 23.6437C376.385 9.2128 359.614 0.554276 341.829 0.554276H300.019H260.08H220.142ZM341.829 40.4927H138.393C133.479 40.4927 128.798 42.6768 125.912 46.7331L101.575 80.4311L73.4932 120.37L59.1403 140.339C59.2675 140.339 59.4031 140.33 59.5415 140.322C59.8274 140.304 60.1256 140.286 60.3884 140.339C124.04 150.635 120.296 160.308 120.296 160.308C120.296 160.308 113.51 170.137 101.575 177.157C94.7451 181.193 86.2165 180.673 79.8305 180.283L79.7335 180.277C73.3372 179.887 59.9203 178.795 42.9153 177.157C42.5909 177.116 42.414 176.97 42.2423 176.829C42.0837 176.698 41.9294 176.57 41.6672 176.533C40.8872 180.823 40.4192 185.269 40.4192 189.638V282.619C54.85 284.881 76.3793 287.69 100.951 290.732L145.882 245.801L152.122 240.185H328.1L334.341 245.801L379.272 290.732C403.843 287.69 425.372 284.881 439.803 282.619V189.638C439.803 185.269 439.335 180.823 438.555 176.533C438.293 176.57 438.139 176.698 437.98 176.829C437.808 176.97 437.632 177.116 437.307 177.157C420.302 178.795 406.885 179.887 400.489 180.277L400.392 180.283C394.006 180.673 385.477 181.193 378.648 177.157C366.713 170.137 359.926 160.308 359.926 160.308C359.926 160.308 356.182 150.635 419.834 140.339C420.097 140.286 420.395 140.304 420.681 140.322C420.819 140.33 420.955 140.339 421.082 140.339L406.729 120.37L378.648 80.4311L354.31 46.7331C351.424 42.6768 346.744 40.4927 341.829 40.4927ZM140.265 200.246V160.308H339.957V200.246H140.265ZM311.251 280.123H168.971L152.746 296.348C179.502 298.532 208.285 300.092 240.111 300.092C271.937 300.092 300.721 298.532 327.476 296.348L311.251 280.123Z" fill="url(#paint1_linear)"/>
  <defs>
    <linearGradient id="paint0_linear" x1="250.111" y1="-142.5" x2="250.111" y2="261.5" gradientUnits="userSpaceOnUse">
      <stop stop-color="#545454"/>
      <stop offset="1" stop-color="white" stop-opacity="0"/>
    </linearGradient>
    <linearGradient id="paint1_linear" x1="240.111" y1="-116" x2="240.111" y2="360" gradientUnits="userSpaceOnUse">
      <stop stop-color="white"/>
      <stop offset="1" stop-color="white" stop-opacity="0"/>
    </linearGradient>
  </defs>
</svg>
