<svg viewBox="0 0 29 19" fill="none" xmlns="http://www.w3.org/2000/svg">
<path d="M13.8164 6.10982e-05C13.4609 -0.0038449 13.1289 0.179749 12.9492 0.488342C12.7695 0.796936 12.7695 1.17584 12.9492 1.48444C13.1289 1.79303 13.4609 1.97662 13.8164 1.97272H16.25L17.4102 3.7149C16.4648 4.26959 15.7891 4.93365 15.7891 4.93365H10.8555C10.8555 4.93365 6.88672 3.94537 2.46875 3.94537C1.64844 3.94537 0.988281 4.60944 0.988281 5.42584C0.988281 6.24225 1.64844 6.90631 2.46875 6.90631C4.91406 6.90631 7.07422 7.70709 8.59766 8.48053L7.24219 10.2696C6.6875 10.0196 6.07422 9.86725 5.42578 9.86725C2.98828 9.86725 0.988281 11.8672 0.988281 14.3087C0.988281 16.7501 2.98828 18.7501 5.42578 18.7501C7.34766 18.7501 8.97656 17.504 9.58984 15.7891H20.0156C20.6289 17.504 22.2578 18.7501 24.1758 18.7501C26.6172 18.7501 28.6172 16.7501 28.6172 14.3087C28.6172 11.8672 26.6172 9.86725 24.1758 9.86725C23.5508 9.86725 22.9531 10.0079 22.4102 10.2422L20.4805 7.63287L20.7227 6.90631C23.6055 6.90631 26.1484 7.7774 26.2812 7.82428C26.2812 7.82428 26.2852 7.82428 26.2852 7.82819C26.2891 7.82819 26.3281 7.8399 26.332 7.8399C26.4336 7.87506 26.5352 7.89459 26.6445 7.89459C27.1875 7.89459 27.6328 7.44928 27.6328 6.90631C27.6328 6.57819 27.4688 6.2735 27.1992 6.0899C27.1914 6.086 27.1836 6.08209 27.1797 6.07428C27.1172 6.0235 23.6484 2.961 19.7383 2.961C19.5938 2.961 19.4531 2.99225 19.3086 3.00787L17.5977 0.437561C17.418 0.164124 17.1094 6.10982e-05 16.7773 6.10982e-05H13.8164ZM10.3125 9.48053C10.6094 9.68756 10.8555 9.86725 10.8555 9.86725V13.8165H9.81641C9.71875 12.9297 9.35938 12.1212 8.8125 11.4727L10.3125 9.48053ZM19.7227 9.92194L20.832 11.4297C20.2617 12.0899 19.8867 12.9102 19.7812 13.8165H18.4219L19.7227 9.92194ZM5.42578 11.8399C6.80078 11.8399 7.89453 12.9376 7.89453 14.3087C7.89453 15.6797 6.80078 16.7774 5.42578 16.7774C4.05469 16.7774 2.96094 15.6797 2.96094 14.3087C2.96094 12.9376 4.05469 11.8399 5.42578 11.8399ZM24.1758 11.8399C25.5508 11.8399 26.6445 12.9376 26.6445 14.3087C26.6445 15.6797 25.5508 16.7774 24.1758 16.7774C22.8047 16.7774 21.7109 15.6797 21.7109 14.3087C21.7109 13.5235 22.0781 12.8399 22.6367 12.3907C22.707 12.3477 22.7695 12.3008 22.8242 12.2422C23.2148 11.9922 23.6758 11.8399 24.1758 11.8399Z" fill="#E74C3C"/>
</svg>
