<svg viewBox="0 0 28 17" fill="none" xmlns="http://www.w3.org/2000/svg">
<path d="M10 0C7.58203 0 5.82031 1.49609 4.71875 2.875C3.98047 3.79688 3.58594 4.55078 3.34375 5.0625L3.16406 5.19141C3.16406 5.19141 0 7.39062 0 11C0 11.918 0.242188 12.6875 0.710938 13.2305C1.17578 13.7695 1.80078 14.0234 2.33594 14.1094C2.59375 14.1523 2.83984 14.1641 3.07031 14.1602C3.38281 15.7695 4.80469 17 6.5 17C8.25 17 9.70312 15.6836 9.94922 14H19.0508C19.2969 15.6836 20.75 17 22.5 17C24.2617 17 25.7227 15.6641 25.9531 13.9648C26.5039 13.918 26.9375 13.8047 27.3359 13.5156C27.6367 13.2969 27.8594 12.9375 27.9375 12.6406C28.0117 12.3477 28 12.1367 28 12V10C28 8.75 27.4883 7.69922 26.7695 6.98047C26.0508 6.26172 25.1602 5.83203 24.3164 5.55078C22.9023 5.07812 21.9492 5.09766 21.5391 5.08984L19.3984 2.5625L19.4375 2.61719C17.5781 0.101563 15.0469 0 14 0H10ZM11 2H14C15.0469 2 16.4219 1.89844 17.8281 3.80469L17.8516 3.83203L20.5352 7H21C21 7 22.375 7.01172 23.6836 7.44922C24.168 7.60937 24.6289 7.83203 25 8.09766V10H26V11.9102C25.9883 11.9023 25.8555 11.9336 25.625 11.9609C25.0469 10.8086 23.8672 10 22.5 10C21.1172 10 19.9219 10.8242 19.3555 12H9.64453C9.07812 10.8242 7.88281 10 6.5 10C5.06641 10 3.82422 10.8828 3.28906 12.125C3.09375 12.1523 2.86328 12.1719 2.66406 12.1406C2.44922 12.1016 2.32422 12.043 2.22656 11.9258C2.13281 11.8125 2 11.582 2 11C2 8.80078 3.83594 7.25781 4.15234 7H17V5H11V2ZM9 2.14453V5H5.66406C5.83984 4.72266 6.03906 4.42578 6.28125 4.125C6.98047 3.25 7.88672 2.45703 9 2.14453ZM6.5 12C7.33984 12 8 12.6602 8 13.5C8 14.3398 7.33984 15 6.5 15C5.66016 15 5 14.3398 5 13.5C5 12.6602 5.66016 12 6.5 12ZM22.5 12C23.3398 12 24 12.6602 24 13.5C24 14.3398 23.3398 15 22.5 15C21.6602 15 21 14.3398 21 13.5C21 12.6602 21.6602 12 22.5 12Z" fill="#27AE60"/>
</svg>
