<svg viewBox="0 0 29 16" fill="none" xmlns="http://www.w3.org/2000/svg">
<path d="M12.203 0V2.28571H13.9616L15.6485 3.07143V5.07143C14.8634 5.29911 13.3605 5.63839 11.3057 5.67857L9.2599 4.67857L9.04455 4.57143H3.01485V9.92857C3.01485 11.5938 4.01532 12.8125 4.95297 13.6429C4.71968 13.6875 4.45947 13.7143 4.19926 13.7143C2.66043 13.7143 1.43564 12.8214 1.43564 12.8214L0 14.6071C0 14.6071 1.77212 16 4.19926 16C5.87717 16 6.94493 15.4464 7.60891 15.0357C8.27738 15.442 9.39898 16 11.0903 16C12.7683 16 13.836 15.4464 14.5 15.0357C15.1685 15.442 16.2901 16 17.9814 16C19.6593 16 20.7271 15.4464 21.3911 15.0357C22.0596 15.442 23.1812 16 24.8725 16C27.2997 16 29 14.6071 29 14.6071L27.5644 12.8214C27.5644 12.8214 26.4114 13.7143 24.8725 13.7143C24.6931 13.7143 24.5046 13.7009 24.3342 13.6786C25.3077 12.7589 26.3889 11.4018 27.0619 9.53572L27.2054 9.17857L27.0978 8.85714C25.9807 4.72322 22.1717 1.22321 16.9765 1.14286L14.7153 0.107143L14.5 0H12.203ZM17.9455 3.60714C21.4225 4.05357 23.8451 6.32143 24.729 9.10714C23.4593 9.61161 21.3462 10.2857 18.771 10.2857H5.38366C5.35675 10.1696 5.31188 10.0446 5.31188 9.92857V6.85714H8.4703L10.7673 8H11.0545C14.3699 8 17.1918 7 17.1918 7L17.9455 6.75V3.60714Z" fill="#9E9E9E"/>
</svg>
