<svg viewBox="0 0 27 24" fill="none" xmlns="http://www.w3.org/2000/svg">
<path d="M7.88281 0L8.88281 9H7.01562L5.01562 6H0.78125L1.98047 12L0.78125 18H5.01562L7.01562 15H8.88281L7.88281 24H12.6523L16.6523 15H24C25.6445 15 27 13.6445 27 12C27 10.3555 25.6445 9 24 9H16.6523L12.6523 0H7.88281ZM10.1172 2H11.3477L15.3477 11H24C24.5664 11 25 11.4336 25 12C25 12.5664 24.5664 13 24 13H15.3477L11.3477 22H10.1172L11.1172 13H5.94531L3.94531 16H3.21875L4.01953 12L3.21875 8H3.94531L5.94531 11H11.1172L10.1172 2Z" fill="#27AE60"/>
</svg>
