<svg viewBox="0 0 23 306" fill="none" xmlns="http://www.w3.org/2000/svg">
  <rect width="18" height="4" fill="#A2A2A2"/>
  <rect y="75" width="18" height="4" fill="#A2A2A2"/>
  <rect y="155" width="18" height="4" fill="#A2A2A2"/>
  <rect width="18" height="4" transform="matrix(1 0 0 -1 0 306)" fill="#A2A2A2"/>
  <rect y="54" width="18" height="4" fill="#A2A2A2"/>
  <rect y="129" width="18" height="4" fill="#A2A2A2"/>
  <rect opacity="0.6" y="209" width="18" height="4" fill="#A2A2A2"/>
  <rect width="18" height="4" transform="matrix(1 0 0 -1 0 252)" fill="#A2A2A2"/>
  <rect y="14" width="14" height="4" fill="#A2A2A2"/>
  <rect y="89" width="14" height="4" fill="#A2A2A2"/>
  <rect y="169" width="14" height="4" fill="#A2A2A2"/>
  <rect width="14" height="4" transform="matrix(1 0 0 -1 0 292)" fill="#A2A2A2"/>
  <rect y="68" width="14" height="4" fill="#A2A2A2"/>
  <rect y="143" width="14" height="4" fill="#A2A2A2"/>
  <rect opacity="0.6" y="223" width="14" height="4" fill="#A2A2A2"/>
  <rect width="14" height="4" transform="matrix(1 0 0 -1 0 238)" fill="#A2A2A2"/>
  <rect opacity="0.6" y="7" width="23" height="4" fill="#A2A2A2"/>
  <rect y="82" width="23" height="4" fill="#A2A2A2"/>
  <rect y="162" width="23" height="4" fill="#A2A2A2"/>
  <rect opacity="0.6" width="23" height="4" transform="matrix(1 0 0 -1 0 299)" fill="#A2A2A2"/>
  <rect opacity="0.6" y="61" width="23" height="4" fill="#A2A2A2"/>
  <rect y="136" width="23" height="4" fill="#A2A2A2"/>
  <rect opacity="0.6" y="216" width="23" height="4" fill="#A2A2A2"/>
  <rect width="23" height="4" transform="matrix(1 0 0 -1 0 245)" fill="#A2A2A2"/>
  <rect y="27" width="23" height="4" fill="#A2A2A2"/>
  <rect opacity="0.6" y="102" width="23" height="4" fill="#A2A2A2"/>
  <rect y="182" width="23" height="4" fill="#A2A2A2"/>
  <rect opacity="0.6" width="23" height="4" transform="matrix(1 0 0 -1 0 279)" fill="#A2A2A2"/>
  <rect y="40" width="23" height="4" fill="#A2A2A2"/>
  <rect y="115" width="23" height="4" fill="#A2A2A2"/>
  <rect y="195" width="23" height="4" fill="#A2A2A2"/>
  <rect width="23" height="4" transform="matrix(1 0 0 -1 0 266)" fill="#A2A2A2"/>
  <rect y="47" width="20" height="4" fill="#A2A2A2"/>
  <rect y="122" width="20" height="4" fill="#A2A2A2"/>
  <rect y="202" width="20" height="4" fill="#A2A2A2"/>
  <rect width="20" height="4" transform="matrix(1 0 0 -1 0 259)" fill="#A2A2A2"/>
</svg>
