<?xml version="1.0" encoding="utf-8"?>
<!-- Generator: Adobe Illustrator 24.0.2, SVG Export Plug-In . SVG Version: 6.00 Build 0)  -->
<svg version="1.1" id="Слой_1" xmlns="http://www.w3.org/2000/svg" xmlns:xlink="http://www.w3.org/1999/xlink" x="0px" y="0px"
	 viewBox="0 0 233 233" style="enable-background:new 0 0 233 233;" xml:space="preserve">
<style type="text/css">
	.st0{opacity:0.8;}
	.st1{fill-rule:evenodd;clip-rule:evenodd;fill:#0A4DCE;}
	.st2{fill:#F34735;}
	.st3{fill:#FFFFFF;}
</style>
<g class="st0">
	<path class="st1" d="M8.9,0.5C4,0.5,0,4.5,0,9.4v192.7c0,4.9,4,8.9,8.9,8.9h192.7c4.9,0,8.9-4,8.9-8.9V9.4c0-4.9-4-8.9-8.9-8.9H8.9
		z M35.3,31.7l-4.3-13.2l-4.3,13.2H13l11.2,8.1L19.9,53l11.2-8.1L42.3,53L38,39.8l11.2-8.1H35.3z M177.4,18.5l4.3,13.2h13.8
		l-11.2,8.1l4.3,13.2l-11.2-8.1L166.2,53l4.3-13.2l-11.2-8.1h13.8L177.4,18.5z M109.5,31.7l-4.3-13.2L101,31.7H87.1l11.2,8.1L94,53
		l11.2-8.1l11.2,8.1l-4.3-13.2l11.2-8.1H109.5z M31.1,82.7l4.3,13.2h13.8L38,104l4.3,13.2L31.1,109l-11.2,8.1l4.3-13.2L13,95.8h13.8
		L31.1,82.7z M35.3,160l-4.3-13.2L26.8,160H13l11.2,8.1l-4.3,13.2l11.2-8.1l11.2,8.1L38,168.1l11.2-8.1H35.3z"/>
</g>
<g class="st0">
	<path class="st2" d="M88.5,82.7h137.7c3.5,0,6.3,2.8,6.3,6.3v137.7c0,3.5-2.8,6.3-6.3,6.3H88.5c-3.5,0-6.3-2.8-6.3-6.3V89
		C82.2,85.5,85,82.7,88.5,82.7z"/>
</g>
<path class="st3" d="M111.9,46.7c-13-0.1-24,6-32.4,13.2c-8.4,7.2-14.3,15.5-17.7,21l-5,8.1h11.4c-4.1,5.3-9.1,12.4-12.1,19l-0.5,1
	v9.4l7.1-2.8c3-1.2,7.4-2,11.9-3.1c-2.7,10.2-3.5,19.4-2.3,25.1l0.8,4.3h7.3l1.5-1.7c2.4-2.5,10.5-5.9,14.6-7.6
	c6,9.8,14.1,16.6,20.5,19.4l7.4,3.3v-8.1c0-13.9,3-26.4,7.6-34.9c4.7-8.5,10.4-12.7,17-12.7h17c5.7,0,9.9,1.8,11.2,5.3V94.2
	c0-5.1-1.7-18.9-15.7-20.8c-0.4-2.4-1.3-4.7-2.6-6.6c-2.7-3.7-6.5-7-11.2-9.9C138.2,51,125.2,46.7,111.9,46.7z M111.9,57.3
	c10.9,0,22.5,3.8,30.3,8.6c3.9,2.4,6.9,5,8.3,6.9c1.4,2,1.2,2.4,1.2,2.5l-0.2,0.2v0.2l-6.1,14.1c-9.5,1.5-17.5,8.1-22.7,17.5
	c-4.6,8.4-6.8,19.3-7.8,30.9c-4.5-3.3-9.2-7.7-12.1-14.2l-1.8-4.3l-4.5,1.3c-2.7,0.8-8.3,3.4-13.9,6.6c0.1-5.7,0.7-12.5,4.3-20.5
	L91,98l-9.9,1.7c-1.9,0.3-5.6,1.7-8.8,2.5c5.4-7.7,11.1-14.9,11.1-14.9l8.1-8.8H77.6c2.8-3.6,4.7-6.9,8.8-10.4
	C93.6,61.8,102.3,57.2,111.9,57.3z M119.2,73.2c0,4.4,4.1,10.6,10.6,10.6c7.9,0,10.6-5.3,10.6-5.3L119.2,73.2z"/>
<path class="st3" d="M96.2,190.3c-1.8,0-3.4-0.4-4.8-1.1c-1.4-0.7-2.4-1.8-3.2-3.1c-0.8-1.3-1.1-2.9-1.1-4.7v-13.9l4.3,0v13.9
	c0,1,0.2,1.8,0.6,2.5c0.4,0.7,1,1.3,1.7,1.7c0.7,0.4,1.6,0.6,2.5,0.6c0.9,0,1.7-0.2,2.5-0.6c0.7-0.4,1.3-1,1.7-1.7
	c0.4-0.7,0.7-1.6,0.7-2.5v-13.9h4.3v14c0,1.8-0.4,3.3-1.1,4.7c-0.8,1.3-1.8,2.4-3.2,3.1C99.6,190,98,190.3,96.2,190.3z"/>
<path class="st3" d="M117.2,190.3c-1.7,0-3.2-0.3-4.5-0.9c-1.3-0.6-2.4-1.4-3.3-2.5c-0.8-1.1-1.4-2.4-1.6-3.9l4.4-0.7
	c0.3,1.3,0.9,2.2,1.9,2.9c1,0.7,2.1,1.1,3.4,1.1c1.1,0,2.1-0.2,2.9-0.7c0.9-0.5,1.3-1.2,1.3-2.1c0-0.5-0.2-0.9-0.5-1.3
	c-0.3-0.4-0.9-0.7-1.7-0.9l-5.8-1.7c-1.4-0.4-2.6-1-3.6-1.8c-1-0.8-1.5-2.2-1.5-4c0-1.4,0.4-2.7,1.1-3.7c0.7-1,1.7-1.8,3-2.3
	c1.3-0.5,2.7-0.8,4.3-0.7c2.3,0,4.3,0.6,5.8,1.7c1.6,1.1,2.6,2.7,3.1,4.8l-4.6,0.8c-0.2-1.1-0.8-1.9-1.7-2.5
	c-0.8-0.6-1.8-0.9-2.9-0.9c-1,0-1.9,0.2-2.6,0.7c-0.7,0.5-1.1,1.1-1.1,1.8c0,0.7,0.3,1.2,0.8,1.5c0.5,0.4,1.3,0.6,2.2,0.9l3.9,1.1
	c1.1,0.3,2.1,0.7,2.9,1.1c0.8,0.4,1.6,1,2.2,1.9c0.7,0.8,1,1.9,1,3.3c0,1.5-0.4,2.8-1.3,3.9c-0.8,1.1-1.9,1.9-3.3,2.4
	C120.2,190.1,118.7,190.3,117.2,190.3z"/>
<path class="st3" d="M143.6,189.9l-1.4-4.7h-8.4l-1.4,4.7H128l6.8-22.4h6.3l6.8,22.4H143.6z M135,181.3h6l-3-9.8L135,181.3z"/>
</svg>
