<svg width="789" height="411" viewBox="0 0 789 411" fill="none" xmlns="http://www.w3.org/2000/svg">
  <path fill-rule="evenodd" clip-rule="evenodd" d="M374.142 -53.4457H334.204H292.393C274.608 -53.4457 257.837 -44.7872 247.462 -30.3563L206.9 26.4311H154.481V66.3695H178.194L175.074 70.7378C161.579 89.6149 154.481 112.392 154.481 135.638V246.092V247.964V286.031C154.481 297.029 163.451 306 174.45 306H234.358L244.342 276.046C250.016 276.725 255.835 277.354 261.917 278.012C263.528 278.186 265.158 278.363 266.808 278.542L268.68 280.414L269.928 279.166C306.356 282.989 348.4 286.031 394.111 286.031C439.822 286.031 481.866 282.989 518.295 279.166L519.543 280.414L521.415 278.542C523.065 278.363 524.694 278.186 526.305 278.012C532.387 277.354 538.207 276.725 543.88 276.046L553.865 306H613.772C624.771 306 633.742 297.029 633.742 286.031V248.589C633.82 247.73 633.82 246.95 633.742 246.092V135.638C633.742 112.392 626.643 89.6149 613.148 70.7378L610.028 66.3695H633.742V26.4311H581.323L540.76 -30.3563C530.385 -44.7872 513.614 -53.4457 495.829 -53.4457H454.019H414.08H374.142ZM495.829 -13.5073H292.393C287.479 -13.5073 282.798 -11.3232 279.912 -7.26692L255.575 26.4311L227.493 66.3695L213.14 86.3387C213.268 86.3387 213.403 86.3304 213.541 86.3219C213.827 86.3044 214.126 86.2861 214.388 86.3387C278.04 96.6353 274.296 106.308 274.296 106.308C274.296 106.308 267.51 116.137 255.575 123.157C248.745 127.193 240.216 126.673 233.831 126.283L233.734 126.277C227.337 125.887 213.92 124.795 196.915 123.157C196.591 123.116 196.414 122.97 196.242 122.829C196.084 122.698 195.929 122.57 195.667 122.533C194.887 126.823 194.419 131.269 194.419 135.638V228.619C208.85 230.881 230.379 233.69 254.951 236.732L299.882 191.801L306.122 186.185H482.1L488.341 191.801L533.272 236.732C557.843 233.69 579.372 230.881 593.803 228.619V135.638C593.803 131.269 593.335 126.823 592.555 122.533C592.293 122.57 592.139 122.698 591.98 122.829C591.808 122.97 591.632 123.116 591.307 123.157C574.302 124.795 560.885 125.887 554.489 126.277L554.392 126.283C548.006 126.673 539.477 127.193 532.648 123.157C520.713 116.137 513.926 106.308 513.926 106.308C513.926 106.308 510.182 96.6353 573.834 86.3387C574.097 86.2861 574.395 86.3044 574.681 86.3219C574.819 86.3304 574.955 86.3387 575.082 86.3387L560.729 66.3695L532.648 26.4311L508.31 -7.26692C505.424 -11.3232 500.744 -13.5073 495.829 -13.5073ZM294.265 146.246V106.308H493.957V146.246H294.265ZM465.251 226.123H322.971L306.746 242.348C333.502 244.532 362.285 246.092 394.111 246.092C425.937 246.092 454.721 244.532 481.476 242.348L465.251 226.123Z" fill="url(#paint0_linear)"/>
  <g filter="url(#filter0_d)">
    <ellipse cx="394.5" cy="411" rx="332.5" ry="283" fill="white" fill-opacity="0.4"/>
  </g>
  <defs>
    <filter id="filter0_d" x="-188" y="-122" width="1165" height="1066" filterUnits="userSpaceOnUse" color-interpolation-filters="sRGB">
      <feFlood flood-opacity="0" result="BackgroundImageFix"/>
      <feColorMatrix in="SourceAlpha" type="matrix" values="0 0 0 0 0 0 0 0 0 0 0 0 0 0 0 0 0 0 127 0"/>
      <feOffset/>
      <feGaussianBlur stdDeviation="125"/>
      <feColorMatrix type="matrix" values="0 0 0 0 0.808333 0 0 0 0 0.808333 0 0 0 0 0.808333 0 0 0 1 0"/>
      <feBlend mode="normal" in2="BackgroundImageFix" result="effect1_dropShadow"/>
      <feBlend mode="normal" in="SourceGraphic" in2="effect1_dropShadow" result="shape"/>
    </filter>
    <linearGradient id="paint0_linear" x1="394.111" y1="-141.5" x2="394.111" y2="318" gradientUnits="userSpaceOnUse">
      <stop stop-color="#C7C7C7"/>
      <stop offset="1" stop-color="white" stop-opacity="0"/>
    </linearGradient>
  </defs>
</svg>
