<svg width="22" height="22" viewBox="0 0 22 22" fill="none" xmlns="http://www.w3.org/2000/svg">
  <circle cx="11" cy="11" r="11" fill="#0A4DCE"/>
  <path d="M7.46484 8.47518C7.51125 7.59346 7.81289 6.88448 8.36977 6.34823C8.97305 5.76557 9.79547 5.47424 10.837 5.47424C11.8013 5.47424 12.5927 5.74237 13.2115 6.27862C13.8148 6.80456 14.1164 7.46971 14.1164 8.27409C14.1164 9.40331 13.5776 10.2928 12.4999 10.9424C12.0152 11.2312 11.6827 11.5071 11.5022 11.77C11.3269 12.0227 11.2392 12.3553 11.2392 12.7678V13.2705H9.8857V12.5589C9.88055 11.6153 10.3962 10.8316 11.4326 10.2077C11.8863 9.92924 12.206 9.65338 12.3916 9.3801C12.5824 9.09651 12.6778 8.75104 12.6778 8.3437C12.6778 7.85901 12.5051 7.46198 12.1596 7.1526C11.809 6.83807 11.3501 6.68081 10.7829 6.68081C10.2002 6.68081 9.73359 6.84065 9.38297 7.16034C9.02719 7.48002 8.82867 7.91831 8.78742 8.47518H7.46484ZM10.5663 16.7974C10.3188 16.7974 10.11 16.7123 9.93984 16.5421C9.76969 16.372 9.68461 16.1631 9.68461 15.9156C9.68461 15.663 9.76969 15.4542 9.93984 15.2892C10.11 15.119 10.3188 15.0339 10.5663 15.0339C10.819 15.0339 11.0278 15.119 11.1928 15.2892C11.363 15.4542 11.448 15.663 11.448 15.9156C11.448 16.1631 11.363 16.372 11.1928 16.5421C11.0278 16.7123 10.819 16.7974 10.5663 16.7974Z" fill="white"/>
</svg>
