<svg width="19" height="18" viewBox="0 0 19 18" fill="none" xmlns="http://www.w3.org/2000/svg">
<path d="M8.93965 0.497499C9.09893 -0.104438 9.95328 -0.104438 10.1126 0.4975L11.6353 6.25224C11.709 6.53051 11.968 6.71871 12.2554 6.70276L18.1991 6.3727C18.8208 6.33818 19.0848 7.15071 18.5615 7.4882L13.559 10.7148C13.3171 10.8708 13.2182 11.1753 13.3222 11.4437L15.4728 16.9945C15.6977 17.5751 15.0065 18.0772 14.5239 17.6839L9.90934 13.9233C9.68621 13.7414 9.366 13.7414 9.14287 13.9233L4.52836 17.6839C4.04569 18.0772 3.35451 17.5751 3.57946 16.9945L5.73005 11.4437C5.83404 11.1753 5.73509 10.8708 5.49319 10.7148L0.490682 7.4882C-0.0325741 7.15071 0.231433 6.33818 0.85313 6.3727L6.79678 6.70276C7.08418 6.71871 7.34323 6.5305 7.41686 6.25224L8.93965 0.497499Z" fill="black"/>
</svg>
