<svg width="59" height="59" viewBox="0 -5 35 53" fill="none" xmlns="http://www.w3.org/2000/svg">
  <path d="M0.267578 14.7764L6.70626 10.989L7.27438 12.8827L19.9624 20.2682L21.6667 19.132L24.1286 20.647L24.318 17.4276L26.9692 15.9127L34.3547 20.2682L21.6667 27.4644L0.267578 14.7764Z" fill="#F3F3F3"/>
  <path d="M33.4079 22.5407L31.5141 23.4876V33.1456L33.4079 32.0094V22.5407Z" fill="#F3F3F3"/>
  <path d="M28.6735 25.0026L26.4011 26.5175V35.7968L28.6735 34.85V25.0026Z" fill="#F3F3F3"/>
  <path d="M23.7498 37.6906V28.0325L21.6667 28.6007L5.38065 19.7001V20.647L7.27438 21.7832V31.0625L9.54686 29.7369V24.4344L10.115 23.4876L12.0087 24.4344V33.7137L14.0918 32.3881V27.4644L14.6599 26.1388L16.9324 27.4644V36.1756L18.6368 35.2287L19.0155 28.6007L21.6667 29.7369V38.8268L23.7498 37.6906Z" fill="#F3F3F3"/>
  <path d="M4.62316 19.132L0.835697 16.8595V17.9958L2.72943 19.7001V28.0325L4.62316 27.4644V19.132Z" fill="#F3F3F3"/>
  <path d="M19.9624 18.5639L28.1054 13.2614L22.4242 9.47397L22.0455 7.20149C21.894 4.47452 19.4574 3.79277 18.258 3.79277L17.6899 0.00531006L16.9324 3.79277C14.5084 4.09577 13.3974 6.1915 13.1449 7.20149L7.65313 10.4208L19.9624 18.5639Z" fill="#F3F3F3"/>
</svg>
