<svg width="23" height="411" viewBox="0 0 23 411" fill="none" xmlns="http://www.w3.org/2000/svg">
  <path opacity="0.25" fill-rule="evenodd" clip-rule="evenodd" d="M4 0H23V14.6635L19.2971 14.626L23 23.618V27.382L19.2971 36.374L23 36.3365V54.6635L19.2971 54.626L23 63.618V67.382L19.2971 76.374L23 76.3365V94.6635L19.2971 94.626L23 103.618V107.382L19.2971 116.374L23 116.337V134.663L19.2971 134.626L23 143.618V147.382L19.2971 156.374L23 156.337V174.663L19.2971 174.626L23 183.618V187.382L19.2971 196.374L23 196.337V214.663L19.2971 214.626L23 223.618V227.382L19.2971 236.374L23 236.337V254.663L19.2971 254.626L23 263.618V267.382L19.2971 276.374L23 276.337V294.663L19.2971 294.626L23 303.618V307.382L19.2971 316.374L23 316.337V334.663L19.2971 334.626L23 343.618V347.382L19.2971 356.374L23 356.337V374.663L19.2971 374.626L23 383.618V387.382L19.2971 396.374L23 396.337V411H4V0Z" fill="#EA3838"/>
  <path fill-rule="evenodd" clip-rule="evenodd" d="M0 0H19V14.6635L15.2971 14.626L19 23.618V27.382L15.2971 36.374L19 36.3365V54.6635L15.2971 54.626L19 63.618V67.382L15.2971 76.374L19 76.3365V94.6635L15.2971 94.626L19 103.618V107.382L15.2971 116.374L19 116.337V134.663L15.2971 134.626L19 143.618V147.382L15.2971 156.374L19 156.337V174.663L15.2971 174.626L19 183.618V187.382L15.2971 196.374L19 196.337V214.663L15.2971 214.626L19 223.618V227.382L15.2971 236.374L19 236.337V254.663L15.2971 254.626L19 263.618V267.382L15.2971 276.374L19 276.337V294.663L15.2971 294.626L19 303.618V307.382L15.2971 316.374L19 316.337V334.663L15.2971 334.626L19 343.618V347.382L15.2971 356.374L19 356.337V374.663L15.2971 374.626L19 383.618V387.382L15.2971 396.374L19 396.337V411H0V0Z" fill="#0A4DCE"/>
</svg>
